<?xml version="1.0" encoding="UTF-8" standalone="no"?>
<!-- Created with Inkscape (http://www.inkscape.org/) -->

<svg
   version="1.1"
   id="svg653"
   width="880"
   height="880"
   viewBox="0 0 880 880"
   sodipodi:docname="bridge-over-river-graphics-pdv.svg"
   inkscape:version="1.2 (dc2aedaf03, 2022-05-15)"
   xmlns:inkscape="http://www.inkscape.org/namespaces/inkscape"
   xmlns:sodipodi="http://sodipodi.sourceforge.net/DTD/sodipodi-0.dtd"
   xmlns="http://www.w3.org/2000/svg"
   xmlns:svg="http://www.w3.org/2000/svg">
  <defs
     id="defs657">
    <clipPath
       clipPathUnits="userSpaceOnUse"
       id="clipPath687">
      <path
         d="M 0,660 H 660 V 0 H 0 Z"
         id="path685" />
    </clipPath>
  </defs>
  <sodipodi:namedview
     id="namedview655"
     pagecolor="#ffffff"
     bordercolor="#000000"
     borderopacity="0.25"
     inkscape:showpageshadow="2"
     inkscape:pageopacity="0.0"
     inkscape:pagecheckerboard="0"
     inkscape:deskcolor="#d1d1d1"
     showgrid="false"
     inkscape:zoom="0.95113636"
     inkscape:cx="441.05137"
     inkscape:cy="440.52569"
     inkscape:window-width="1920"
     inkscape:window-height="1017"
     inkscape:window-x="-8"
     inkscape:window-y="-8"
     inkscape:window-maximized="1"
     inkscape:current-layer="g661">
    <inkscape:page
       x="0"
       y="0"
       id="page659"
       width="880"
       height="880" />
  </sodipodi:namedview>
  <g
     id="g661"
     inkscape:groupmode="layer"
     inkscape:label="Page 1"
     transform="matrix(1.3333333,0,0,-1.3333333,0,880)">
    <path
       d="M 0,1.551 H 655 V 658.474 H 0 Z"
       style="fill:#dbedff;fill-opacity:1;fill-rule:nonzero;stroke:none"
       id="path663" />
    <g
       id="g665"
       transform="translate(327.9393,482.6889)">
      <path
         d="m 0,0 -38.48,12.268 -62.457,-28.998 -11.71,2.788 -50.189,-21.748 -29,8.365 -136.103,-59.387 v -135.885 l 655,-31.055 v 173.907 l -72.211,37.92 -27.325,-5.018 -81.417,33.459 -27.327,-10.038 -89.224,37.921 z"
         style="fill:#bfdaf5;fill-opacity:1;fill-rule:nonzero;stroke:none"
         id="path667" />
    </g>
    <g
       id="g669"
       transform="translate(230.1323,467.4126)">
      <path
         d="M 0,0 59.328,27.544 97.807,15.276 127.362,29.775 182.59,6.304 h 0.002 L 127.939,15.581 104.518,5.543 77.75,10.563 63.25,6.101 47.078,13.908 Z"
         style="fill:#ffffff;fill-opacity:1;fill-rule:evenodd;stroke:none"
         id="path671" />
    </g>
    <g
       id="g673"
       transform="translate(40.7607,367.5557)">
      <path
         d="m 0,0 52.421,32.344 38.478,2.788 37.92,20.077 17.846,3.904 L 133.281,50.189 98.705,23.422 71.381,16.73 61.9,-28.44 Z M 177.888,-8.649 176.773,8.638 207.445,32.06 222.501,57.155 249.27,70.539 231.423,54.367 243.693,30.945 228.078,12.542 237,-27.051 153.351,-34.028 Z"
         style="fill:#afcae6;fill-opacity:1;fill-rule:evenodd;stroke:none"
         id="path675" />
    </g>
    <g
       id="g677"
       transform="translate(543.2061,376.1924)">
      <path
         d="m 0,0 -57.438,39.593 -31.788,3.346 -38.478,23.422 12.269,-27.884 -8.923,-23.421 79.188,-53.535 z"
         style="fill:#afcae6;fill-opacity:1;fill-rule:evenodd;stroke:none"
         id="path679" />
    </g>
    <g
       id="g681">
      <g
         id="g683"
         clip-path="url(#clipPath687)">
        <g
           id="g689"
           transform="translate(124.4312,294.3887)">
          <path
             d="m 0,0 c -6.205,0.609 -11.055,5.843 -11.055,12.209 0,2.671 0.853,5.14 2.302,7.152 -0.045,0.678 -0.073,1.363 -0.073,2.05 0,16.785 13.61,30.393 30.394,30.393 9.281,0 17.592,-4.163 23.166,-10.722 4.011,5.803 10.705,9.606 18.293,9.606 2.248,0 4.415,-0.335 6.459,-0.956 1.943,0.967 4.135,1.514 6.455,1.514 3.609,0 6.909,-1.32 9.447,-3.502 2.816,3.175 6.923,5.174 11.502,5.174 1.592,0 3.13,-0.243 4.574,-0.692 1.273,3.565 3.702,6.578 6.833,8.594 -0.007,0.2 -0.014,0.401 -0.014,0.603 0,5.145 2.607,9.683 6.571,12.363 -1.336,2.112 -2.108,4.612 -2.108,7.295 0,7.544 6.116,13.662 13.661,13.662 7.547,0 13.663,-6.118 13.663,-13.662 0,-4.271 -1.958,-8.082 -5.026,-10.589 0.671,-0.875 1.249,-1.827 1.715,-2.84 1.554,0.569 3.233,0.882 4.983,0.882 2.251,0 4.379,-0.513 6.277,-1.426 1.551,4.093 5.504,7.002 10.137,7.002 5.987,0 10.838,-4.852 10.838,-10.837 v -0.06 c 2.193,1.591 4.89,2.532 7.807,2.532 0.307,0 0.612,-0.012 0.915,-0.032 -0.183,0.647 -0.282,1.33 -0.282,2.036 0,4.128 3.348,7.476 7.478,7.476 4.128,0 7.477,-3.348 7.477,-7.476 0,-0.755 -0.113,-1.483 -0.323,-2.172 0.931,-0.099 1.784,-0.455 2.491,-0.994 1.288,0.393 2.653,0.604 4.071,0.604 7.702,0 13.946,-6.244 13.946,-13.945 0,-2.662 -0.746,-5.151 -2.043,-7.268 0.923,-1.723 1.487,-3.669 1.594,-5.735 1.599,3.493 4.625,6.197 8.335,7.361 -2.145,2.601 -3.43,5.931 -3.43,9.562 0,8.31 6.735,15.045 15.042,15.045 1.712,0 3.354,-0.288 4.888,-0.813 1.356,4.967 5.9,8.619 11.298,8.619 5.677,0 10.409,-4.041 11.483,-9.403 0.173,-0.095 0.344,-0.197 0.513,-0.303 2.74,4.167 7.457,6.918 12.818,6.918 l 0.254,-0.004 c 2.164,3.042 5.716,5.023 9.732,5.023 6.591,0 11.936,-5.344 11.936,-11.935 0,-2.624 -0.847,-5.05 -2.279,-7.017 6.745,-3.767 11.308,-10.974 11.308,-19.247 0,-5.187 -1.792,-9.952 -4.791,-13.716 0.935,-2.597 1.447,-5.394 1.447,-8.312 0,-11.721 -29.152,-44.892 -41.407,-44.892 -1.685,0 -3.322,0.195 -4.893,0.566 -4.324,-3.986 -10.096,-6.42 -16.44,-6.42 -1.184,0 -2.348,0.084 -3.489,0.25 -3.995,-4.748 -9.977,-7.762 -16.668,-7.762 -8.082,0 -15.137,4.402 -18.896,10.94 -2.816,-1.636 -6.043,-2.646 -9.487,-2.839 -1.664,-16.689 -15.748,-29.721 -32.873,-29.721 -18.251,0 -33.042,14.793 -33.042,33.038 0,2.505 0.28,4.945 0.808,7.288 -2.663,-1.787 -5.869,-2.829 -9.317,-2.829 -2.239,0 -4.38,0.44 -6.333,1.241 -1.399,-2.095 -3.785,-3.473 -6.492,-3.473 -37.436,0 -1.728,-9.481 -32.9,-9.481 -0.915,0 -1.814,0.051 -2.701,0.145 -4.556,-9.695 -14.41,-16.407 -25.832,-16.407 -15.757,0 -28.529,12.771 -28.529,28.529 0,4.855 1.213,9.426 3.353,13.427 C 9.527,-7.173 4.157,-4.19 0,0"
             style="fill:#a4bfa6;fill-opacity:1;fill-rule:evenodd;stroke:none"
             id="path691" />
        </g>
        <g
           id="g693"
           transform="translate(104.8804,329.9019)">
          <path
             d="m 0,0 h 342.96 v -31.175 c 0,11.092 -9.074,20.168 -20.168,20.168 -11.092,0 -20.169,-9.076 -20.169,-20.168 v -20.576 h -13.085 v 20.576 c 0,11.092 -9.077,20.168 -20.169,20.168 h -0.002 c -11.093,0 -20.168,-9.076 -20.168,-20.168 v -20.576 h -13.085 v 20.576 c 0,11.092 -9.076,20.168 -20.17,20.168 -11.091,0 -20.17,-9.076 -20.17,-20.168 V -51.751 H 182.69 v 20.576 c 0,11.092 -9.077,20.168 -20.17,20.168 -11.095,0 -20.168,-9.076 -20.168,-20.168 v -20.576 h -13.085 v 20.576 c 0,11.092 -9.076,20.168 -20.169,20.168 h -0.002 c -11.093,0 -20.168,-9.076 -20.168,-20.168 V -51.751 H 75.843 v 20.576 c 0,11.092 -9.076,20.168 -20.171,20.168 -11.093,0 -20.168,-9.076 -20.168,-20.168 v -20.576 l -35.504,0 z"
             style="fill:#fafafa;fill-opacity:1;fill-rule:evenodd;stroke:none"
             id="path695" />
        </g>
        <g
           id="g697"
           transform="translate(193.6812,298.9717)">
          <path
             d="m 0,0 c 2.211,-2.23 3.671,-5.204 3.974,-8.514 1.325,0.427 2.735,0.657 4.202,0.657 2.148,0 4.183,-0.495 5.991,-1.375 1.866,3.172 5.315,5.3 9.261,5.3 3.954,0 7.41,-2.138 9.273,-5.324 1.278,2.113 3.061,3.887 5.181,5.153 -0.768,1.222 -1.209,2.669 -1.209,4.216 0,4.388 3.556,7.946 7.945,7.946 0.365,0 0.723,-0.024 1.073,-0.073 2.111,3.074 5.649,5.092 9.661,5.092 4.891,0 9.077,-2.997 10.834,-7.253 6.306,-0.136 11.532,-4.656 12.756,-10.634 0.312,0.028 0.628,0.042 0.95,0.042 6.004,0 10.873,-4.868 10.873,-10.875 0,-6.006 -4.869,-10.874 -10.873,-10.874 -2.11,0 -4.081,0.603 -5.746,1.641 -2.004,-3.447 -5.736,-5.762 -10.01,-5.762 -3.013,0 -5.756,1.15 -7.814,3.037 -2.731,-2.773 -6.528,-4.493 -10.729,-4.493 -6.608,0 -12.221,4.259 -14.246,10.179 -1.965,-2.14 -4.784,-3.487 -7.919,-3.487 -0.693,0 -1.369,0.067 -2.022,0.192 -1.594,-5.813 -6.912,-10.086 -13.23,-10.086 -7.092,0 -12.929,5.385 -13.645,12.286 -1.391,-0.466 -2.878,-0.719 -4.424,-0.719 -1.972,0 -3.845,0.411 -5.544,1.15 -1.543,-5.18 -6.343,-8.955 -12.021,-8.955 -6.931,0 -12.547,5.618 -12.547,12.548 0,3.158 1.165,6.043 3.091,8.248 -0.906,1.65 -1.419,3.544 -1.419,5.556 0,6.39 5.179,11.568 11.565,11.568 1.942,0 3.774,-0.48 5.38,-1.328 1.394,4.484 5.577,7.739 10.518,7.739 C -4.787,12.798 0.145,7.87 0.145,1.785 0.145,1.177 0.095,0.583 0,0"
             style="fill:#919e47;fill-opacity:1;fill-rule:evenodd;stroke:none"
             id="path699" />
        </g>
        <g
           id="g701"
           transform="translate(655,481.2681)">
          <path
             d="m 0,0 v -44.853 c -2.563,-0.971 -5.333,-1.517 -8.227,-1.549 3.243,-1.165 6.078,-3.189 8.227,-5.797 v -123.896 c -3.543,-2.113 -7.685,-3.327 -12.111,-3.327 -9.313,0 -17.366,5.377 -21.236,13.193 -0.777,-0.53 -1.597,-1.006 -2.447,-1.421 2.657,-2.441 4.32,-5.941 4.32,-9.836 0,-7.375 -5.979,-13.354 -13.355,-13.354 -1.536,0 -3.012,0.259 -4.386,0.736 -0.204,-17.996 -14.853,-32.525 -32.897,-32.525 -18.171,0 -32.903,14.734 -32.903,32.903 0,14.49 9.367,26.788 22.376,31.18 -7.096,4.677 -11.781,12.717 -11.781,21.852 0,8.672 4.222,16.356 10.721,21.115 -0.082,0.74 -0.123,1.491 -0.123,2.252 0,8.804 5.512,16.317 13.273,19.283 -1.349,2.405 -2.12,5.179 -2.12,8.134 0,5.335 2.509,10.083 6.415,13.127 1.6,11.434 9.932,20.708 20.859,23.692 0.799,3.535 2.507,6.727 4.864,9.318 -1.3,2.913 -2.025,6.142 -2.025,9.538 0,9.834 6.058,18.249 14.646,21.721 -4.4,2.342 -7.397,6.974 -7.397,12.307 0,7.694 6.238,13.931 13.932,13.931 7.693,0 13.931,-6.237 13.931,-13.931 0,-1.48 -0.23,-2.905 -0.658,-4.241 2.941,1.286 6.187,2 9.603,2 C -5.508,1.552 -2.643,1.001 0,0"
             style="fill:#94ab13;fill-opacity:1;fill-rule:evenodd;stroke:none"
             id="path703" />
        </g>
        <path
           d="M -1.924,1.551 H 655 V 278.153 H -1.924 Z"
           style="fill:#a7bf1c;fill-opacity:1;fill-rule:evenodd;stroke:none"
           id="path705" />
        <g
           id="g707"
           transform="translate(274.6797,278.1523)">
          <path
             d="M 0,0 H 94.803 C -35.013,-49.188 43.19,-110.301 380.32,-186.259 v -90.343 H -65.804 C -174.613,-190.893 -257.387,-52.611 0,0"
             style="fill:#828768;fill-opacity:1;fill-rule:evenodd;stroke:none"
             id="path709" />
        </g>
        <g
           id="g711"
           transform="translate(340.9941,278.1523)">
          <path
             d="M 0,0 H 13.085 V -6.345 C 8.084,-8.586 3.506,-10.854 -0.653,-13.143 -0.227,-12.021 0,-10.843 0,-9.634 Z m -53.422,0 h 13.085 v -9.634 c 0,-7.653 9.072,-13.918 20.168,-13.918 h 0.002 c 1.401,0 2.772,0.1 4.097,0.289 -3.221,-2.597 -5.924,-5.226 -8.091,-7.883 h -140.568 c 7.648,3.724 15.964,7.302 25.033,10.709 3.471,-1.946 7.886,-3.115 12.679,-3.115 11.025,0 20.057,6.189 20.167,13.781 4.241,1.192 8.605,2.356 13.088,3.492 v -3.355 c 0,-7.653 9.075,-13.918 20.168,-13.918 11.094,0 20.172,6.265 20.172,13.918 z"
             style="fill:#71755c;fill-opacity:1;fill-rule:evenodd;stroke:none"
             id="path713" />
        </g>
        <g
           id="g715"
           transform="translate(105.6958,140.6523)">
          <path
             d="m 0,0 c -5.588,33.642 6.515,66.099 46.678,92.808 0.3,-1.148 0.46,-2.353 0.46,-3.591 0,-0.317 -0.011,-0.628 -0.03,-0.937 0.371,0.066 0.754,0.1 1.144,0.1 3.698,0 6.691,-2.997 6.691,-6.693 0,-3.205 -2.251,-5.883 -5.26,-6.537 1.227,-2.443 1.917,-5.197 1.917,-8.115 0,-8.588 -5.973,-15.78 -13.993,-17.651 0.033,-0.338 0.051,-0.683 0.051,-1.029 0,-3.862 -2.064,-7.24 -5.15,-9.089 1.852,-3.041 2.917,-6.612 2.917,-10.43 0,-11.088 -8.986,-20.075 -20.073,-20.075 -2.32,0 -4.544,0.392 -6.615,1.115 C 6.838,5.8 3.785,2.367 0,0"
             style="fill:#656955;fill-opacity:1;fill-rule:evenodd;stroke:none"
             id="path717" />
        </g>
        <g
           id="g719"
           transform="translate(379,172.6943)">
          <path
             d="m 0,0 c 30.874,-13.703 72.339,-28.014 124.956,-42.964 -0.516,-2.658 -1.595,-5.116 -3.108,-7.243 3.131,-2.607 5.123,-6.535 5.123,-10.929 0,-7.852 -6.367,-14.219 -14.22,-14.219 -3.919,0 -7.468,1.584 -10.038,4.147 -1.86,-2.041 -4.187,-3.651 -6.813,-4.655 0.263,-1.134 0.4,-2.32 0.4,-3.538 0,-8.699 -7.053,-15.753 -15.754,-15.753 -0.71,0 -1.406,0.049 -2.091,0.139 v -0.139 c 0,-7.544 -6.117,-13.662 -13.662,-13.662 -7.546,0 -13.664,6.118 -13.664,13.662 0,2.385 0.612,4.626 1.684,6.577 -2.45,3.088 -3.915,6.992 -3.915,11.24 0,0.343 0.011,0.681 0.031,1.019 -6.479,2.007 -11.184,8.045 -11.184,15.182 0,4.73 2.065,8.976 5.345,11.887 -0.642,0.285 -1.262,0.612 -1.86,0.968 -2.541,-1.605 -5.552,-2.536 -8.782,-2.536 -9.086,0 -16.45,7.365 -16.45,16.45 0,6.341 3.587,11.843 8.844,14.588 -3.752,2.517 -6.542,6.357 -7.698,10.851 -0.516,-0.043 -1.04,-0.065 -1.567,-0.065 C 8.92,-8.993 3.107,-5.377 0,0"
             style="fill:#656955;fill-opacity:1;fill-rule:evenodd;stroke:none"
             id="path721" />
        </g>
        <g
           id="g723"
           transform="translate(464.8428,141.3711)">
          <path
             d="m 0,0 c 31.91,-9.96 68.933,-20.219 111.185,-30.774 -2.027,-3.293 -4.703,-6.145 -7.849,-8.379 4.506,-3.936 7.351,-9.723 7.351,-16.173 0,-5.292 -1.916,-10.139 -5.09,-13.88 4.345,-4.162 7.05,-10.022 7.05,-16.516 0,-12.626 -10.238,-22.86 -22.864,-22.86 -0.913,0 -1.813,0.054 -2.699,0.155 -0.587,-2.16 -1.919,-4.014 -3.703,-5.267 0.501,-1.562 0.775,-3.224 0.775,-4.952 0,-8.92 -7.23,-16.146 -16.147,-16.146 -8.917,0 -16.146,7.226 -16.146,16.146 0,5.707 2.961,10.72 7.432,13.592 -12.382,1.46 -22.179,11.367 -23.461,23.8 l -0.423,-0.006 c -12.781,0 -23.14,10.364 -23.14,23.144 0,2.536 0.408,4.975 1.163,7.259 -5.069,3.34 -8.414,9.082 -8.414,15.606 0,0.845 0.056,1.676 0.165,2.491 -5.45,3.331 -9.087,9.336 -9.087,16.191 0,4.752 1.746,9.094 4.635,12.422 C 0.26,-2.895 0,-1.537 0,-0.117 Z"
             style="fill:#71755c;fill-opacity:1;fill-rule:evenodd;stroke:none"
             id="path725" />
        </g>
        <g
           id="g727"
           transform="translate(459.5459,395.4082)">
          <path
             d="m 0,0 c 8.701,0 15.754,-7.053 15.754,-15.754 0,-1.217 -0.137,-2.4 -0.4,-3.538 2.626,-1.003 4.954,-2.612 6.813,-4.655 2.57,2.564 6.119,4.149 10.038,4.149 7.854,0 14.22,-6.366 14.22,-14.22 0,-4.394 -1.991,-8.32 -5.123,-10.93 2.173,-3.052 3.451,-6.786 3.451,-10.818 0,-10.319 -8.363,-18.682 -18.682,-18.682 -2.697,0 -5.259,0.572 -7.575,1.6 0.395,-1.396 0.605,-2.869 0.605,-4.387 0,-4.472 -1.817,-8.52 -4.749,-11.448 1.249,-2.32 1.96,-4.972 1.96,-7.793 0,-2.636 -0.621,-5.125 -1.722,-7.332 7.892,-2.679 13.573,-10.151 13.573,-18.948 0,-1.934 -0.276,-3.802 -0.788,-5.569 0.777,-1.928 1.205,-4.034 1.205,-6.241 0,-9.229 -7.482,-16.71 -16.711,-16.71 -2.638,0 -5.132,0.612 -7.352,1.699 -0.65,-5.737 -5.112,-10.321 -10.79,-11.158 -1.366,-7.077 -7.586,-12.419 -15.056,-12.419 -7.81,0 -14.258,5.838 -15.215,13.385 l -0.121,-0.002 c -4.077,0 -7.824,1.412 -10.777,3.771 -3.23,-2.369 -7.218,-3.771 -11.53,-3.771 -10.781,0 -19.517,8.74 -19.517,19.519 0,2.576 0.499,5.035 1.406,7.286 -8.571,0.567 -15.348,7.697 -15.348,16.414 0,6.666 3.964,12.406 9.662,14.991 1.253,8.708 8.746,15.401 17.8,15.401 0.528,0 1.051,-0.024 1.567,-0.067 1.156,4.495 3.946,8.334 7.698,10.851 -5.257,2.747 -8.844,8.25 -8.844,14.59 0,9.087 7.364,16.451 16.45,16.451 3.23,0 6.242,-0.931 8.783,-2.539 0.597,0.358 1.217,0.683 1.859,0.97 -3.279,2.912 -5.345,7.157 -5.345,11.886 0,7.137 4.705,13.175 11.184,15.183 -0.02,0.337 -0.031,0.677 -0.031,1.018 0,4.248 1.465,8.152 3.916,11.24 -1.073,1.952 -1.685,4.193 -1.685,6.577 0,7.544 6.118,13.662 13.664,13.662 7.545,0 13.662,-6.118 13.662,-13.662 V -0.14 C -1.406,-0.049 -0.709,0 0,0"
             style="fill:#94ab13;fill-opacity:1;fill-rule:evenodd;stroke:none"
             id="path729" />
        </g>
        <g
           id="g731"
           transform="translate(542.7598,119.125)">
          <path
             d="m 0,0 c 33.604,-8.858 70.969,-17.932 112.24,-27.231 v -1.411 -1.414 -1.41 -1.411 -1.412 -1.412 -1.412 -1.411 -1.411 -1.412 -1.412 -1.411 -1.412 -1.41 -1.412 -1.413 -1.41 -1.413 -1.411 -1.412 -1.412 -1.41 -1.412 -1.413 -1.41 -1.413 -1.411 -1.412 -1.412 -1.412 -1.41 -1.411 -1.413 -1.413 -1.409 -1.412 -1.412 -0.395 c -0.733,-0.059 -1.473,-0.095 -2.225,-0.095 -3.366,0 -6.582,0.621 -9.545,1.754 0.04,-0.484 0.062,-0.977 0.062,-1.475 0,-9.392 -7.614,-17.009 -17.006,-17.009 -9.393,0 -17.01,7.617 -17.01,17.009 0,4.553 1.788,8.69 4.703,11.741 -2.96,3.16 -5.13,7.071 -6.196,11.414 -3.485,-2.797 -7.911,-4.472 -12.726,-4.472 -6.797,0 -12.815,3.331 -16.511,8.448 -3.352,0.323 -6.436,1.574 -8.987,3.494 -2.981,-3.229 -7.25,-5.251 -11.992,-5.251 -9.017,0 -16.325,7.31 -16.325,16.324 0,6.062 3.302,11.352 8.207,14.167 -4.696,4.238 -7.65,10.368 -7.65,17.189 0,2.301 0.336,4.52 0.961,6.617"
             style="fill:#5d614c;fill-opacity:1;fill-rule:evenodd;stroke:none"
             id="path733" />
        </g>
        <g
           id="g735"
           transform="translate(524.1563,203.9883)">
          <path
             d="m 0,0 c -4.694,-8.007 -13.39,-13.384 -23.345,-13.384 -11.302,0 -20.984,6.935 -25.027,16.78 -0.575,-0.031 -1.156,-0.05 -1.741,-0.05 -17.091,0 -30.95,13.856 -30.95,30.951 0,14.113 9.452,26.022 22.369,29.743 -0.401,1.164 -0.619,2.415 -0.619,3.716 0,1.418 0.259,2.775 0.732,4.03 -2.887,3.327 -4.637,7.67 -4.637,12.42 0,6.855 3.638,12.86 9.089,16.189 -0.108,0.817 -0.167,1.649 -0.167,2.495 0,6.522 3.348,12.263 8.414,15.604 -0.753,2.282 -1.163,4.723 -1.163,7.259 0,12.782 10.363,23.142 23.143,23.142 l 0.421,-0.003 c 1.284,12.432 11.079,22.341 23.461,23.797 -4.467,2.873 -7.432,7.887 -7.432,13.596 0,8.917 7.23,16.146 16.147,16.146 8.917,0 16.146,-7.229 16.146,-16.146 0,-1.729 -0.271,-3.392 -0.776,-4.952 1.785,-1.255 3.118,-3.11 3.705,-5.27 0.884,0.102 1.787,0.158 2.7,0.158 12.627,0 22.864,-10.237 22.864,-22.865 0,-6.49 -2.707,-12.352 -7.051,-16.513 3.175,-3.742 5.09,-8.587 5.09,-13.878 0,-6.452 -2.847,-12.238 -7.349,-16.174 7.32,-5.203 12.098,-13.755 12.098,-23.42 0,-13.872 -9.83,-25.443 -22.905,-28.132 0.028,-0.471 0.041,-0.947 0.041,-1.425 0,-5.533 -1.772,-10.653 -4.78,-14.821 0.93,-2.888 1.434,-5.964 1.434,-9.16 0,-16.476 -13.356,-29.835 -29.836,-29.835 z"
             style="fill:#cfe35d;fill-opacity:1;fill-rule:evenodd;stroke:none"
             id="path737" />
        </g>
        <g
           id="g739"
           transform="translate(655,319.3291)">
          <path
             d="m 0,0 v -180.586 l -0.275,-0.004 c -7.789,0 -14.679,3.849 -18.873,9.745 -4.254,-2.303 -9.126,-3.611 -14.308,-3.611 -11.112,0 -20.817,6.019 -26.035,14.975 -4.39,-3.773 -10.103,-6.052 -16.347,-6.052 -6.604,0 -12.613,2.552 -17.092,6.723 -0.433,-0.02 -0.871,-0.031 -1.31,-0.031 -9.087,0 -17.138,4.437 -22.107,11.263 -0.801,-0.073 -1.612,-0.109 -2.43,-0.109 -14.785,0 -26.769,11.982 -26.769,26.766 0,10.513 6.062,19.607 14.878,23.985 3.168,6.282 9.674,10.591 17.187,10.591 1.647,0 3.249,-0.209 4.773,-0.599 -2.823,3.838 -4.491,8.576 -4.491,13.704 0,6.822 2.952,12.952 7.648,17.187 -4.905,2.818 -8.207,8.106 -8.207,14.166 0,9.017 7.309,16.327 16.324,16.327 4.744,0 9.012,-2.026 11.993,-5.251 2.552,1.916 5.634,3.171 8.987,3.495 3.698,5.117 9.714,8.448 16.509,8.448 4.817,0 9.243,-1.676 12.728,-4.474 1.065,4.345 3.236,8.255 6.196,11.413 -2.914,3.054 -4.704,7.189 -4.704,11.742 0,9.393 7.616,17.008 17.011,17.008 9.392,0 17.006,-7.615 17.006,-17.008 0,-0.496 -0.023,-0.99 -0.063,-1.474 2.967,1.133 6.18,1.754 9.545,1.754 C -1.478,0.093 -0.733,0.058 0,0"
             style="fill:#748707;fill-opacity:1;fill-rule:evenodd;stroke:none"
             id="path741" />
        </g>
        <g
           id="g743"
           transform="translate(-1.9243,216.4082)">
          <path
             d="m 0,0 v 225.712 c 2.777,1.34 5.893,2.089 9.182,2.089 5.17,0 9.908,-1.855 13.586,-4.936 1.388,11.269 10.995,19.992 22.636,19.992 2.796,0 5.475,-0.502 7.95,-1.423 2.049,7.258 8.724,12.577 16.637,12.577 9.546,0 17.285,-7.738 17.285,-17.286 0,-6.655 -3.758,-12.428 -9.269,-15.318 0.944,-2.235 1.467,-4.691 1.467,-7.268 0,-6.609 -3.433,-12.416 -8.612,-15.738 -1.986,-5.822 -7.439,-10.04 -13.898,-10.19 0.078,-0.534 0.12,-1.081 0.12,-1.636 0,-4.757 -2.992,-8.819 -7.196,-10.4 l 0.06,-0.244 c 0.176,0.004 0.352,0.007 0.528,0.007 11.086,0 20.076,-8.989 20.076,-20.075 l -0.006,-0.361 c 0.932,-0.317 1.828,-0.712 2.682,-1.175 2.463,3.936 6.836,6.555 11.822,6.555 7.699,0 13.942,-6.243 13.942,-13.942 0,-2.456 -0.637,-4.762 -1.752,-6.768 8.491,-0.68 15.686,-5.941 19.117,-13.31 2.073,0.724 4.297,1.118 6.615,1.118 11.086,0 20.075,-8.988 20.075,-20.076 0,-3.82 -1.065,-7.388 -2.917,-10.427 3.082,-1.854 5.148,-5.232 5.148,-9.091 0,-0.347 -0.018,-0.693 -0.05,-1.032 8.018,-1.87 13.992,-9.062 13.992,-17.65 0,-2.919 -0.69,-5.673 -1.913,-8.114 3.006,-0.655 5.258,-3.335 5.258,-6.537 0,-3.698 -2.997,-6.692 -6.691,-6.692 -0.392,0 -0.775,0.034 -1.147,0.097 0.02,-0.309 0.031,-0.619 0.031,-0.933 0,-7.855 -6.368,-14.221 -14.221,-14.221 -2.331,0 -4.531,0.561 -6.473,1.555 -4.374,-8.613 -13.314,-14.516 -23.636,-14.516 -5.083,0 -9.83,1.43 -13.86,3.912 -5.091,-5.488 -12.363,-8.923 -20.442,-8.923 -5.607,0 -10.83,1.658 -15.201,4.508 C 55.027,13.1 46.363,8.841 36.702,8.841 c -3.751,0 -7.352,0.646 -10.7,1.826 C 19.72,4.085 10.859,-0.016 1.045,-0.016 0.697,-0.016 0.349,-0.009 0,0"
             style="fill:#94ab13;fill-opacity:1;fill-rule:evenodd;stroke:none"
             id="path745" />
        </g>
        <g
           id="g747"
           transform="translate(509.1836,478.231)">
          <path
             d="m 0,0 c 43.001,0 78.072,35.072 78.072,78.072 0,43.001 -35.071,78.073 -78.072,78.073 -43.001,0 -78.072,-35.072 -78.072,-78.073 C -78.072,35.072 -43.001,0 0,0"
             style="fill:#f2f9ff;fill-opacity:1;fill-rule:evenodd;stroke:none"
             id="path749" />
        </g>
        <g
           id="g751"
           transform="translate(233.0952,1.5508)">
          <path
             d="m 0,0 h -235.02 v 285.914 c 35.695,-5.903 64.004,-33.674 70.712,-69.094 8.559,4.397 18.262,6.878 28.545,6.878 34.546,0 62.552,-28.005 62.552,-62.553 0,-9.546 -2.142,-18.592 -5.967,-26.685 1.06,-0.303 2.104,-0.639 3.135,-1.006 11.24,11.521 26.936,18.675 44.304,18.675 34.186,0 61.9,-27.715 61.9,-61.9 0,-27.328 -17.708,-50.514 -42.275,-58.722 C -6.11,22.106 -1.908,11.44 0,0"
             style="fill:#cfe35d;fill-opacity:1;fill-rule:evenodd;stroke:none"
             id="path753" />
        </g>
      </g>
    </g>
  </g>
</svg>
